<?xml version="1.0" standalone="no"?><!DOCTYPE svg PUBLIC "-//W3C//DTD SVG 1.1//EN" "http://www.w3.org/Graphics/SVG/1.1/DTD/svg11.dtd"><svg t="1696997419125" class="icon" viewBox="0 0 1024 1024" version="1.1" xmlns="http://www.w3.org/2000/svg" p-id="1005" xmlns:xlink="http://www.w3.org/1999/xlink" width="200" height="200"><path d="M513 514m-425 0a425 425 0 1 0 850 0 425 425 0 1 0-850 0Z" fill="#DCEDFF" p-id="1006"></path><path d="M832.35 437L545.07 231.6c-17.82-12.8-43.16-12.8-60.71 0L197.08 437c-11.92 8.72-14.82 25.88-6.47 38.33 10.4 10.86 28.78 12.54 40.83 3.73l266.28-194.71a28.61 28.61 0 0 1 34 0l270.4 197.75a25.64 25.64 0 0 0 36.7-6.75c8.35-12.45 5.45-29.61-6.47-38.35z" fill="#88C4FF" p-id="1007"></path><path d="M531.22 335.82a28.31 28.31 0 0 0-33 0l-213.12 153a42.64 42.64 0 0 0-17.76 34.61L267.23 726a44.69 44.69 0 0 0 44.69 44.69h105.6A17.43 17.43 0 0 0 435 753.21v-95a35.89 35.89 0 0 1 35.89-35.89h87.75a35.89 35.89 0 0 1 35.89 35.89v95a17.43 17.43 0 0 0 17.43 17.44h105.6A44.69 44.69 0 0 0 762.2 726V523.42a42.63 42.63 0 0 0-17.77-34.63z" fill="#468EF7" p-id="1008"></path></svg>